<?xml version="1.0" encoding="utf-8"?>
<svg version="1.1" xmlns="http://www.w3.org/2000/svg" xmlns:xlink="http://www.w3.org/1999/xlink" x="0px" y="0px"
	 viewBox="0 0 24 24" xml:space="preserve">
  <path d="M15.9,7.5h-15C0.4,7.5,0,7.8,0,8.3v15c0,0.3,0.2,0.5,0.4,0.7C0.7,24,1,24,1.2,23.9l7.1-4l7.1,4
        c0.3,0.1,0.6,0.1,0.8,0c0.3-0.1,0.4-0.4,0.4-0.7v-15C16.6,7.8,16.3,7.5,15.9,7.5C15.9,7.5,15.9,7.5,15.9,7.5z M15.9,23.2l-7.4-4.2
        c0,0-0.1,0-0.1,0c0,0-0.1,0-0.1,0l-7.4,4.2v-15h15V23.2z"/>
        <path d="M15.9,0h-15C0.4,0,0,0.3,0,0.8v4.5c0,0.4,0.4,0.8,0.8,0.8h15c0.4,0,0.8-0.3,0.8-0.8V0.8
        C16.6,0.3,16.3,0,15.9,0z M15.9,5.3h-15V0.8h15V5.3z"/>
</svg>