<?xml version="1.0" encoding="utf-8"?>
<svg version="1.1" xmlns="http://www.w3.org/2000/svg" xmlns:xlink="http://www.w3.org/1999/xlink" x="0px" y="0px"
	 viewBox="0 0 25 25" xml:space="preserve">
	<path d="M15,0H9C8.7,0,8.5,0.2,8.5,0.5v6c0,0.3,0.2,0.5,0.5,0.5h6c0.3,0,0.5-0.2,0.5-0.5v-6
	C15.5,0.2,15.3,0,15,0z M14.5,6H9.5V0.9h5.1V6z"/>
      <path d="M23.5,0h-6c-0.3,0-0.5,0.2-0.5,0.5v6c0,0.3,0.2,0.5,0.5,0.5h6c0.3,0,0.5-0.2,0.5-0.5v-6
	C24,0.2,23.8,0,23.5,0z M23.1,6H18V0.9h5.1V6z"/>
      <path d="M6.5,8.5h-6C0.2,8.5,0,8.7,0,9v6c0,0.3,0.2,0.5,0.5,0.5h6c0.3,0,0.5-0.2,0.5-0.5V9
	C6.9,8.7,6.7,8.5,6.5,8.5C6.5,8.5,6.5,8.5,6.5,8.5z M0.9,14.5V9.5H6v5.1H0.9z"/>
      <path d="M15,8.5H9C8.7,8.5,8.5,8.7,8.5,9v6c0,0.3,0.2,0.5,0.5,0.5h6c0.3,0,0.5-0.2,0.5-0.5V9
	C15.5,8.7,15.3,8.5,15,8.5L15,8.5z M14.5,14.5H9.5V9.5h5.1V14.5z"/>
      <path d="M23.5,8.5h-6c-0.3,0-0.5,0.2-0.5,0.5v6c0,0.3,0.2,0.5,0.5,0.5h6c0.3,0,0.5-0.2,0.5-0.5V9
	C24,8.7,23.8,8.5,23.5,8.5L23.5,8.5z M23.1,14.5H18V9.5h5.1V14.5z"/>
      <path d="M6.5,17.1h-6c-0.3,0-0.5,0.2-0.5,0.5v6C0,23.8,0.2,24,0.5,24h6c0.3,0,0.5-0.2,0.5-0.5v-6
	C6.9,17.3,6.7,17.1,6.5,17.1C6.5,17.1,6.5,17.1,6.5,17.1z M0.9,23.1V18H6v5.1H0.9z"/>
      <path d="M15,17.1H9c-0.3,0-0.5,0.2-0.5,0.5v6C8.5,23.8,8.7,24,9,24h6c0.3,0,0.5-0.2,0.5-0.5v-6
	C15.5,17.3,15.3,17.1,15,17.1z M14.5,23.1H9.5V18h5.1V23.1z"/>
      <path d="M21,17.9c0.2-0.2,0.2-0.5,0-0.7c-0.2-0.2-0.5-0.2-0.7,0s-0.2,0.5,0,0.7
c0.1,0.1,0.2,0.1,0.3,0.1C20.8,18,20.9,18,21,17.9z"/>
      <path d="M23.5,17.1h-0.7c-0.3,0-0.5,0.2-0.5,0.5c0,0.3,0.2,0.5,0.5,0.5h0.2v5.1H18V18h0.6
	c0.3,0,0.5-0.2,0.5-0.5c0-0.3-0.2-0.5-0.5-0.5h-1.1c-0.3,0-0.5,0.2-0.5,0.5v6c0,0.3,0.2,0.5,0.5,0.5h6c0.3,0,0.5-0.2,0.5-0.5v-6
	C24,17.3,23.8,17.1,23.5,17.1z"/>
      <path d="M3,6.1C2.8,6.3,2.8,6.6,3,6.8C3.2,7,3.5,7,3.6,6.8c0.2-0.2,0.2-0.5,0-0.7C3.6,6.1,3.4,6,3.3,6
	C3.2,6,3.1,6.1,3,6.1z"/>
      <path d="M0.5,6.9h0.7c0.3,0,0.5-0.2,0.5-0.5C1.7,6.2,1.4,6,1.2,6H0.9V0.9H6V6H5.4
	C5.1,6,4.9,6.2,4.9,6.5c0,0.3,0.2,0.5,0.5,0.5l0,0h1.1c0.3,0,0.5-0.2,0.5-0.5v-6C6.9,0.2,6.7,0,6.5,0c0,0,0,0,0,0h-6
	C0.2,0,0,0.2,0,0.5v6C0,6.7,0.2,6.9,0.5,6.9C0.5,6.9,0.5,6.9,0.5,6.9z"/>
</svg>
