<?xml version="1.0" encoding="utf-8"?>
<svg version="1.1" id="Layer_1" xmlns="http://www.w3.org/2000/svg" xmlns:xlink="http://www.w3.org/1999/xlink" x="0px" y="0px"
	 viewBox="0 0 34 34" style="enable-background:new 0 0 34 34;" xml:space="preserve">
<style type="text/css">
	.st0{fill:#5B6770;}
	.st1{fill:#FFFFFF;}
</style>
<path id="btn" class="st0" d="M17,0L17,0c9.4,0,17,7.6,17,17l0,0c0,9.4-7.6,17-17,17l0,0C7.6,34,0,26.4,0,17l0,0C0,7.6,7.6,0,17,0z"
	/>
<g id="ico_search" transform="translate(5 4)">
	<path id="Path_550" class="st1" d="M23.5,20.8l-6.3-6.3c2.9-4.3,1.7-10.1-2.6-13S4.4-0.1,1.5,4.2s-1.7,10.1,2.6,13
		c3.1,2.1,7.2,2.1,10.4,0l1.7,1.7l0,0l4.5,4.5c0.7,0.8,1.9,0.8,2.7,0.1C24.2,22.8,24.2,21.6,23.5,20.8
		C23.5,20.9,23.5,20.8,23.5,20.8z M14.3,16.2L14.3,16.2c-3.8,2.7-9.1,1.9-11.8-1.9S0.6,5.3,4.4,2.5s9.1-1.9,11.8,1.9
		c2.1,3,2.1,7,0,9.9C15.7,15,15,15.7,14.3,16.2L14.3,16.2z M15.3,16.6c0.5-0.4,0.9-0.8,1.3-1.3l1.3,1.3c-0.4,0.5-0.8,0.9-1.3,1.3
		L15.3,16.6z M22.8,22.8c-0.4,0.4-1,0.4-1.3,0l-4.2-4.2c0.5-0.4,0.9-0.9,1.3-1.3l4.2,4.2C23.2,21.8,23.2,22.4,22.8,22.8L22.8,22.8z"
		/>
	<path id="Path_551" class="st1" d="M9.4,1.9c-4.1,0-7.5,3.4-7.5,7.5s3.4,7.5,7.5,7.5s7.5-3.4,7.5-7.5C16.9,5.2,13.5,1.9,9.4,1.9z
		 M9.4,15.9c-3.6,0-6.6-2.9-6.6-6.6s2.9-6.6,6.6-6.6s6.6,2.9,6.6,6.6v0C15.9,13,13,15.9,9.4,15.9z"/>
</g>
</svg>
