<?xml version="1.0" encoding="utf-8"?>
<svg version="1.1" xmlns="http://www.w3.org/2000/svg" xmlns:xlink="http://www.w3.org/1999/xlink" x="0px" y="0px"
	 viewBox="0 0 24 24" xml:space="preserve">
  <path d="M24,9.1c-0.1-0.4-0.4-0.6-0.8-0.7l-7.3-0.7l-1.5-3.5C14.3,4,14.1,3.9,13.9,4c0,0,0,0,0,0
            c-0.2,0.1-0.3,0.3-0.2,0.5l1.5,3.7c0,0.1,0.2,0.2,0.3,0.2l7.5,0.7c0.1,0,0.2,0.1,0.2,0.2c0,0.1,0,0.2-0.1,0.3l-5.7,5.2
            c-0.1,0.1-0.1,0.2-0.1,0.4l1.7,7.7c0,0.1,0,0.2-0.1,0.3c-0.1,0.1-0.2,0.1-0.3,0l-6.5-4.1c-0.1-0.1-0.2-0.1-0.4,0l-6.5,4.1
            c-0.1,0.1-0.2,0.1-0.3,0c-0.1-0.1-0.1-0.2-0.1-0.3l0.9-4c0-0.2-0.1-0.4-0.3-0.4c-0.2,0-0.4,0.1-0.4,0.3c0,0,0,0,0,0l-0.9,4
            c-0.1,0.4,0.1,0.8,0.4,1c0.3,0.2,0.7,0.3,1,0.1l6.3-3.9l6.3,3.9c0.3,0.2,0.7,0.2,1-0.1c0.3-0.2,0.5-0.6,0.4-1l-1.6-7.5l5.5-5.1
            C24,9.9,24.1,9.5,24,9.1z"/>
  <path d="M5.4,17.2c0,0.2,0.1,0.4,0.3,0.4c0,0,0.1,0,0.1,0c0.2,0,0.3-0.1,0.3-0.3l0.5-2.2
            c0-0.1,0-0.3-0.1-0.4L0.8,9.6C0.7,9.5,0.7,9.4,0.7,9.3c0-0.1,0.1-0.2,0.2-0.2l7.5-0.7c0.1,0,0.2-0.1,0.3-0.2l3-7.3
            c0-0.1,0.2-0.2,0.3-0.1c0.1,0,0.1,0.1,0.1,0.1l0.8,2c0.1,0.2,0.3,0.3,0.4,0.2c0,0,0,0,0,0c0.2-0.1,0.3-0.3,0.2-0.5l-0.8-2
            c-0.2-0.5-0.7-0.7-1.2-0.5c-0.3,0.1-0.4,0.3-0.5,0.5L8.2,7.7L0.9,8.4C0.5,8.5,0.2,8.7,0,9.1c-0.1,0.4,0,0.8,0.3,1.1l5.5,5.1
            L5.4,17.2z"/>
</svg>